<?xml version="1.0" encoding="UTF-8"?>
<svg id="Layer_2" data-name="Layer 2" xmlns="http://www.w3.org/2000/svg" viewBox="0 0 130.74 14.71">
  <defs>
    <style>
      .cls-1 {
        fill: #231f20;
      }

      .cls-2 {
        fill: #89181b;
      }

      .cls-3 {
        fill: #4b4a4b;
      }

      .cls-4 {
        fill: #c52126;
      }
    </style>
  </defs>
  <g id="Layer_1-2" data-name="Layer 1">
    <g>
      <polygon class="cls-1" points="125.09 5.92 129.79 1.59 127.24 1.59 124.02 4.56 122.75 5.73 121.63 6.76 121.63 1.59 119.91 1.59 119.91 13.08 121.63 13.08 121.63 9.09 121.63 9.1 123.82 7.09 128.55 13.08 130.74 13.08 125.09 5.92"/>
      <polygon class="cls-1" points="62.18 1.59 58.56 11.53 54.81 1.59 53.09 1.59 53.09 13.08 54.81 13.08 54.81 6.19 57.32 13.08 57.99 13.08 59.14 13.08 59.83 13.08 62.18 6.61 62.18 13.08 63.9 13.08 63.9 1.59 62.18 1.59"/>
      <polygon class="cls-1" points="36.02 1.59 36.02 6.48 28.71 6.48 28.71 1.59 26.96 1.59 26.96 13.08 28.71 13.08 28.71 8.22 36.02 8.22 36.02 13.08 37.74 13.08 37.74 1.59 36.02 1.59"/>
      <polygon class="cls-1" points="46.98 2.76 46.64 1.62 45.33 1.62 44.14 1.62 43.75 2.76 39.99 13.08 41.82 13.08 45.37 3.35 48.91 13.08 50.74 13.08 46.98 2.76"/>
      <path class="cls-1" d="M103.08,9.97l-.64-1.75-1.99-5.47-.35-1.13h-2.5l-.39,1.13h0s-1.99,5.47-1.99,5.47h0l-.64,1.75-1.13,3.11h1.83l1.13-3.11h4.82l1.13,3.11h1.83l-1.13-3.11ZM97.06,8.22h0s0,0,0,0l1.77-4.88h0s0,0,0,0l1.77,4.88h-3.55Z"/>
      <path class="cls-1" d="M115.66,10.57c-.05-.06-.1-.11-.15-.17-.78.78-1.86,1.27-3.06,1.27-1.99,0-3.66-1.34-4.16-3.17-.1-.37-.16-.75-.16-1.15s.06-.79.16-1.15c.5-1.83,2.18-3.17,4.16-3.17,1.2,0,2.28.49,3.06,1.27.05-.06.1-.12.15-.17.32-.34.68-.61,1.08-.8-.32-.34-.69-.65-1.08-.91-.61-.39-1.29-.68-2.02-.83-.38-.08-.78-.12-1.19-.12s-.81.04-1.2.12c-1.15.24-2.17.81-2.97,1.6-1.06,1.06-1.72,2.53-1.72,4.16s.66,3.09,1.72,4.16c.76.76,1.73,1.31,2.81,1.57.44.1.89.16,1.35.16s.92-.06,1.36-.16c.67-.16,1.29-.43,1.85-.79.4-.26.76-.56,1.08-.91-.4-.19-.77-.46-1.08-.8Z"/>
      <path class="cls-1" d="M77.37,3.34c-.3-.62-.8-1.13-1.42-1.43-.41-.2-.87-.32-1.35-.32h-7.57v11.49h1.72v-4.84h5.85c.12,0,.24,0,.36-.02.35-.04.69-.14,1-.29.62-.31,1.13-.82,1.43-1.45.19-.4.29-.84.29-1.31v-.5c0-.47-.11-.92-.3-1.33ZM76.24,5.05c0,.33-.1.63-.28.88-.17.24-.41.43-.69.54h-6.52v-3.14h6.46c.3.11.56.31.74.56.18.25.28.55.28.88v.27Z"/>
      <path class="cls-1" d="M90.75,6.37c.18-.39.29-.82.29-1.28v-.49c0-.46-.11-.9-.3-1.3-.29-.61-.78-1.1-1.39-1.4-.04-.02-.07-.03-.11-.05-.37-.17-.78-.26-1.21-.26h-7.4v11.49h7.4c.47,0,.92-.11,1.32-.31.6-.3,1.09-.79,1.39-1.4.19-.39.3-.83.3-1.3v-.49c0-.46-.1-.89-.29-1.28-.18-.37-.43-.7-.73-.97.3-.27.55-.6.73-.97ZM89.63,9.96c0,.32-.1.62-.27.86-.18.25-.43.45-.73.55h-6.32v-3.06h6.37c.27.11.5.29.67.53.17.24.27.54.27.86v.26ZM89.63,4.98c0,.32-.1.62-.27.86-.17.24-.4.42-.67.53h-6.37v-3.06h6.32c.3.1.55.3.73.55.17.24.27.54.27.86v.26Z"/>
    </g>
    <g>
      <path class="cls-3" d="M15.34,0c-1.47,0-2.84.44-3.99,1.18,2.02,1.31,3.36,3.58,3.36,6.17s-1.34,4.86-3.36,6.17c1.15.75,2.52,1.18,3.99,1.18,4.06,0,7.35-3.29,7.35-7.35S19.4,0,15.34,0Z"/>
      <path class="cls-4" d="M7.99,7.35c0-2.59,1.34-4.86,3.36-6.17-1.15-.75-2.52-1.18-3.99-1.18C3.29,0,0,3.29,0,7.35s3.29,7.35,7.35,7.35c1.47,0,2.84-.44,3.99-1.18-2.02-1.31-3.36-3.58-3.36-6.17Z"/>
      <path class="cls-2" d="M14.71,7.35c0-2.59-1.34-4.86-3.36-6.17-2.02,1.31-3.36,3.58-3.36,6.17s1.34,4.86,3.36,6.17c2.02-1.31,3.36-3.58,3.36-6.17Z"/>
    </g>
  </g>
</svg>